<svg id="svg" version="1.1" width="400" height="400" viewBox="0 0 400 400" xmlns="http://www.w3.org/2000/svg" xmlns:xlink="http://www.w3.org/1999/xlink"><g id="svgg"><path id="path0" d="M0.000 200.000 L 0.000 400.000 200.000 400.000 L 400.000 400.000 400.000 200.000 L 400.000 0.000 200.000 0.000 L 0.000 0.000 0.000 200.000 M205.595 160.539 C 207.144 160.836,208.810 161.237,209.298 161.430 C 213.386 163.054,214.559 163.621,216.667 164.993 C 236.087 177.631,231.739 208.641,209.559 215.692 C 188.977 222.235,169.251 206.568,171.444 185.420 C 173.131 169.151,189.246 157.411,205.595 160.539 M251.905 161.759 C 252.327 162.727,253.131 164.602,253.691 165.926 C 254.251 167.250,255.629 170.500,256.754 173.148 C 261.216 183.654,269.609 203.623,270.298 205.371 C 272.465 210.870,274.031 213.289,275.936 214.078 C 276.945 214.496,277.637 215.450,277.228 215.858 C 276.742 216.345,269.937 215.965,268.079 215.347 C 264.856 214.277,262.413 211.493,260.135 206.296 L 258.267 202.037 256.195 202.164 C 255.056 202.234,252.737 202.028,251.043 201.708 C 244.392 200.450,243.786 200.393,241.474 200.800 C 238.263 201.366,237.440 202.207,235.613 206.795 C 233.684 211.637,233.652 212.594,235.370 213.966 C 237.791 215.898,235.886 216.606,229.609 216.109 C 225.820 215.810,225.692 215.625,227.918 213.666 C 229.872 211.946,229.064 213.833,240.356 184.630 C 250.631 158.059,250.448 158.420,251.905 161.759 M154.068 161.847 C 165.829 165.034,167.552 179.935,156.681 184.439 L 155.527 184.917 157.621 185.768 C 173.259 192.123,171.687 210.915,155.154 215.258 C 152.090 216.063,125.009 216.614,124.281 215.886 C 123.891 215.496,124.450 214.567,125.372 214.073 C 126.991 213.207,127.037 212.499,127.037 188.695 C 127.037 163.388,127.073 163.918,125.299 162.872 C 122.860 161.433,123.665 161.306,136.512 161.111 C 148.768 160.925,151.010 161.019,154.068 161.847 M132.337 162.129 C 135.355 162.191,140.188 162.191,143.078 162.129 C 145.969 162.066,143.500 162.015,137.593 162.015 C 131.685 162.016,129.320 162.067,132.337 162.129 M135.349 174.259 C 135.349 180.167,135.400 182.531,135.462 179.514 C 135.525 176.497,135.524 171.664,135.462 168.774 C 135.399 165.883,135.348 168.352,135.349 174.259 M195.879 164.399 C 177.218 168.351,176.329 206.296,194.748 212.633 C 205.002 216.161,215.025 209.892,217.904 198.148 C 222.854 177.961,211.802 161.026,195.879 164.399 M136.504 174.352 L 136.526 183.889 140.578 184.003 C 149.606 184.257,153.715 181.179,153.696 174.179 C 153.675 167.025,150.798 164.815,141.507 164.815 L 136.481 164.815 136.504 174.352 M247.437 176.685 C 246.347 179.203,239.691 196.852,239.793 196.953 C 239.858 197.018,241.346 196.864,243.101 196.610 C 245.889 196.207,246.769 196.232,250.090 196.811 C 256.101 197.860,256.296 197.881,256.296 197.490 C 256.296 197.170,255.062 193.994,249.072 178.908 C 247.917 176.000,247.801 175.843,247.437 176.685 M138.438 185.088 C 139.515 185.163,141.181 185.163,142.142 185.087 C 143.103 185.011,142.222 184.949,140.185 184.950 C 138.148 184.951,137.362 185.013,138.438 185.088 M220.125 188.519 C 220.125 190.046,220.190 190.671,220.270 189.907 C 220.350 189.144,220.350 187.894,220.270 187.130 C 220.190 186.366,220.125 186.991,220.125 188.519 M135.354 186.761 C 135.256 187.017,135.222 193.225,135.278 200.557 L 135.380 213.889 135.468 200.299 L 135.556 186.709 137.130 186.567 L 138.704 186.426 137.118 186.361 C 136.136 186.321,135.464 186.473,135.354 186.761 M136.636 187.500 C 136.620 187.551,136.578 193.218,136.544 200.093 L 136.481 212.593 142.866 212.593 C 152.819 212.593,156.080 210.791,157.984 204.242 C 160.317 196.216,155.747 188.770,147.862 187.753 C 145.642 187.467,136.713 187.265,136.636 187.500 M256.389 199.144 C 256.745 199.237,257.329 199.237,257.685 199.144 C 258.042 199.051,257.750 198.975,257.037 198.975 C 256.324 198.975,256.032 199.051,256.389 199.144 M180.185 208.148 C 181.188 209.167,182.093 210.000,182.194 210.000 C 182.296 210.000,181.559 209.167,180.556 208.148 C 179.552 207.130,178.648 206.296,178.546 206.296 C 178.445 206.296,179.182 207.130,180.185 208.148 M198.788 216.193 C 199.446 216.275,200.612 216.276,201.381 216.196 C 202.149 216.116,201.611 216.049,200.185 216.047 C 198.759 216.046,198.131 216.111,198.788 216.193 " stroke="none" fill="#5b0404" fill-rule="evenodd"></path><path id="path1" d="M194.630 162.045 C 164.742 168.617,165.585 210.122,195.716 215.531 C 210.544 218.194,224.597 208.220,227.254 193.148 C 230.581 174.276,213.418 157.913,194.630 162.045 M127.612 163.241 C 128.421 164.791,128.403 212.280,127.594 213.832 L 127.044 214.887 139.911 214.707 C 155.766 214.485,158.565 213.893,162.898 209.840 C 172.009 201.318,164.308 185.556,151.033 185.556 C 149.247 185.556,149.908 184.929,152.164 184.485 C 163.643 182.227,166.380 169.206,156.448 164.099 C 153.497 162.582,149.989 162.222,138.138 162.222 L 127.081 162.222 127.612 163.241 M206.990 163.828 C 226.006 171.660,224.585 209.662,205.104 214.255 C 190.211 217.767,179.045 205.270,180.123 186.296 C 181.113 168.882,193.701 158.354,206.990 163.828 M248.709 166.915 C 247.747 169.325,246.414 172.713,245.749 174.444 C 245.083 176.176,243.953 179.093,243.238 180.926 C 238.303 193.581,236.796 197.472,233.379 206.392 C 232.150 209.602,230.700 212.811,230.158 213.522 L 229.171 214.815 231.438 214.815 C 232.684 214.815,233.704 214.752,233.704 214.675 C 233.704 214.598,233.449 213.925,233.138 213.180 C 232.683 212.092,232.651 211.517,232.976 210.264 C 235.656 199.942,238.938 197.922,249.576 200.047 C 252.739 200.679,254.287 200.792,257.407 200.620 C 261.118 200.416,261.259 200.435,260.490 201.036 L 259.684 201.667 261.192 205.185 C 264.257 212.337,267.309 214.815,273.052 214.815 L 274.151 214.815 272.987 213.490 C 272.054 212.427,269.259 207.144,269.259 206.444 C 269.259 206.351,267.864 202.988,266.158 198.971 C 264.453 194.953,262.180 189.583,261.108 187.037 C 260.036 184.491,258.453 180.741,257.589 178.704 C 256.725 176.667,254.897 172.333,253.527 169.074 C 252.157 165.815,250.907 163.010,250.748 162.841 C 250.589 162.672,249.672 164.505,248.709 166.915 M150.000 164.630 C 155.854 167.823,157.071 177.316,152.245 182.142 C 149.837 184.551,148.248 184.987,141.389 185.124 L 135.185 185.248 135.185 174.260 L 135.185 163.272 141.574 163.395 C 147.867 163.517,147.993 163.535,150.000 164.630 M253.120 185.463 C 255.929 192.542,258.311 198.542,258.413 198.796 C 258.685 199.477,256.602 199.385,252.143 198.520 C 247.635 197.644,243.556 197.578,240.741 198.333 C 238.233 199.006,237.778 199.019,237.778 198.414 C 237.778 197.965,241.462 188.123,244.809 179.630 C 245.652 177.491,246.516 175.157,246.729 174.444 C 247.612 171.488,247.493 171.283,253.120 185.463 M151.748 187.300 C 160.495 190.777,162.908 203.315,156.156 210.196 C 153.147 213.261,151.424 213.739,142.500 213.982 L 135.185 214.181 135.185 200.200 L 135.185 186.219 142.500 186.375 C 148.800 186.510,150.083 186.638,151.748 187.300 " stroke="none" fill="#f2efe3" fill-rule="evenodd"></path><path id="path2" d="M195.047 160.575 C 158.796 167.778,166.301 220.003,203.148 216.947 C 229.540 214.758,238.750 179.364,216.667 164.993 C 214.559 163.621,213.386 163.054,209.298 161.430 C 205.903 160.082,199.472 159.696,195.047 160.575 M250.101 160.463 C 249.595 161.112,246.056 169.888,240.356 184.630 C 229.064 213.833,229.872 211.946,227.918 213.666 C 225.692 215.625,225.820 215.810,229.609 216.109 C 235.886 216.606,237.791 215.898,235.370 213.966 C 233.652 212.594,233.684 211.637,235.613 206.795 C 237.440 202.207,238.263 201.366,241.474 200.800 C 243.786 200.393,244.392 200.450,251.043 201.708 C 252.737 202.028,255.056 202.234,256.195 202.164 L 258.267 202.037 260.135 206.296 C 262.413 211.493,264.856 214.277,268.079 215.347 C 269.937 215.965,276.742 216.345,277.228 215.858 C 277.637 215.450,276.945 214.496,275.936 214.078 C 274.031 213.289,272.465 210.870,270.298 205.371 C 269.609 203.623,261.216 183.654,256.754 173.148 C 255.629 170.500,254.251 167.250,253.691 165.926 C 250.992 159.544,250.911 159.422,250.101 160.463 M136.512 161.111 C 123.665 161.306,122.860 161.433,125.299 162.872 C 127.073 163.918,127.037 163.388,127.037 188.695 C 127.037 212.499,126.991 213.207,125.372 214.073 C 124.450 214.567,123.891 215.496,124.281 215.886 C 125.009 216.614,152.090 216.063,155.154 215.258 C 171.687 210.915,173.259 192.123,157.621 185.768 L 155.527 184.917 156.681 184.439 C 165.914 180.614,166.376 167.693,157.441 163.165 C 153.344 161.089,151.282 160.887,136.512 161.111 M207.222 162.028 C 219.494 164.880,227.784 175.514,227.775 188.395 C 227.753 222.620,177.778 226.421,172.695 192.585 C 169.773 173.136,187.502 157.445,207.222 162.028 M153.574 162.693 C 166.299 166.385,165.933 181.192,153.032 184.625 C 151.308 185.083,151.304 185.088,152.407 185.359 C 164.341 188.285,169.742 196.076,166.270 205.355 C 163.420 212.973,158.235 214.858,139.500 215.091 L 126.222 215.256 127.092 214.079 L 127.963 212.902 128.079 190.617 C 128.205 166.538,128.107 164.033,127.004 162.930 C 126.615 162.541,126.296 162.120,126.296 161.995 C 126.296 161.479,151.625 162.128,153.574 162.693 M251.111 162.241 C 251.111 162.646,251.526 163.650,258.145 179.259 C 260.347 184.454,262.844 190.370,263.693 192.407 C 270.268 208.184,272.035 212.013,273.402 213.450 C 275.235 215.377,275.274 215.333,271.997 215.056 C 268.772 214.783,266.191 213.599,264.416 211.578 C 262.633 209.547,259.353 202.366,259.743 201.349 C 259.904 200.930,259.357 200.868,256.729 201.010 C 254.463 201.131,252.701 200.993,250.741 200.540 C 244.114 199.008,239.271 199.463,237.017 201.830 C 234.364 204.616,232.316 212.336,233.796 213.972 C 234.811 215.093,234.635 215.185,231.464 215.185 L 228.484 215.185 229.558 213.796 C 230.454 212.638,233.333 206.507,233.333 205.756 C 233.333 205.632,234.099 203.577,235.034 201.191 C 235.969 198.804,237.315 195.352,238.025 193.519 C 238.735 191.685,239.872 188.769,240.553 187.037 C 241.233 185.306,242.729 181.472,243.878 178.519 C 249.659 163.655,251.111 160.386,251.111 162.241 M195.572 163.343 C 175.029 167.673,175.260 209.655,195.852 214.028 C 207.095 216.415,215.646 210.603,219.181 198.170 C 220.077 195.021,220.051 182.884,219.142 179.630 C 215.742 167.456,206.467 161.047,195.572 163.343 M135.556 174.259 L 135.556 184.815 140.859 184.815 C 150.718 184.815,154.338 182.237,154.739 174.930 C 155.189 166.723,151.654 163.704,141.594 163.704 L 135.556 163.704 135.556 174.259 M207.143 165.464 C 223.786 173.252,222.784 207.807,205.771 212.753 C 192.098 216.728,181.519 206.066,181.489 188.281 C 181.469 175.874,187.286 166.219,195.879 164.399 C 199.057 163.726,204.535 164.244,207.143 165.464 M148.423 165.376 C 154.453 167.167,155.766 177.460,150.517 181.787 C 148.490 183.458,145.432 184.139,140.578 184.003 L 136.526 183.889 136.504 174.352 L 136.481 164.815 141.507 164.815 C 144.920 164.815,147.139 164.995,148.423 165.376 M245.865 177.505 C 244.930 179.998,242.876 185.370,241.301 189.444 C 238.266 197.295,237.870 198.526,238.383 198.505 C 238.559 198.498,239.704 198.251,240.926 197.956 C 244.041 197.203,247.936 197.278,252.051 198.170 C 253.987 198.589,256.133 198.881,256.820 198.818 L 258.068 198.704 253.071 186.111 C 250.323 179.185,247.960 173.396,247.820 173.245 C 247.680 173.095,246.800 175.012,245.865 177.505 M253.305 189.580 C 254.950 193.728,256.296 197.288,256.296 197.490 C 256.296 197.881,256.101 197.860,250.090 196.811 C 246.769 196.232,245.889 196.207,243.101 196.610 C 241.346 196.864,239.858 197.018,239.793 196.953 C 239.691 196.852,246.347 179.203,247.437 176.685 C 247.801 175.843,247.917 176.000,249.072 178.908 C 249.755 180.629,251.660 185.431,253.305 189.580 M137.130 186.595 L 135.556 186.709 135.556 200.240 L 135.556 213.771 142.870 213.641 C 155.305 213.420,159.438 210.064,159.443 200.185 C 159.446 191.729,155.411 187.584,146.260 186.645 C 142.866 186.297,141.367 186.289,137.130 186.595 M147.862 187.753 C 155.747 188.770,160.317 196.216,157.984 204.242 C 156.080 210.791,152.819 212.593,142.866 212.593 L 136.481 212.593 136.544 200.093 C 136.578 193.218,136.620 187.551,136.636 187.500 C 136.713 187.265,145.642 187.467,147.862 187.753 " stroke="none" fill="#0a0707" fill-rule="evenodd"></path><path id="path3" d="M158.519 165.301 C 158.519 165.365,159.060 165.906,159.722 166.505 L 160.926 167.593 159.838 166.389 C 158.824 165.267,158.519 165.015,158.519 165.301 M220.086 192.963 C 220.086 193.676,220.162 193.968,220.255 193.611 C 220.348 193.255,220.348 192.671,220.255 192.315 C 220.162 191.958,220.086 192.250,220.086 192.963 M159.716 198.148 C 159.716 198.861,159.792 199.153,159.885 198.796 C 159.978 198.440,159.978 197.856,159.885 197.500 C 159.792 197.144,159.716 197.435,159.716 198.148 M159.716 201.852 C 159.716 202.565,159.792 202.856,159.885 202.500 C 159.978 202.144,159.978 201.560,159.885 201.204 C 159.792 200.847,159.716 201.139,159.716 201.852 M254.352 201.009 C 255.014 201.091,256.097 201.091,256.759 201.009 C 257.421 200.927,256.880 200.859,255.556 200.859 C 254.231 200.859,253.690 200.927,254.352 201.009 M213.313 209.537 L 212.037 210.926 213.426 209.650 C 214.190 208.948,214.815 208.323,214.815 208.261 C 214.815 207.978,214.501 208.244,213.313 209.537 M163.125 209.722 L 162.037 210.926 163.241 209.838 C 164.363 208.824,164.615 208.519,164.329 208.519 C 164.265 208.519,163.723 209.060,163.125 209.722 M135.833 213.965 C 136.292 214.053,137.042 214.053,137.500 213.965 C 137.958 213.877,137.583 213.805,136.667 213.805 C 135.750 213.805,135.375 213.877,135.833 213.965 " stroke="none" fill="#979795" fill-rule="evenodd"></path><path id="path4" d="M200.093 161.366 C 200.449 161.460,201.032 161.460,201.389 161.366 C 201.745 161.273,201.454 161.197,200.741 161.197 C 200.028 161.197,199.736 161.273,200.093 161.366 M198.788 162.860 C 199.446 162.942,200.612 162.943,201.381 162.863 C 202.149 162.783,201.611 162.716,200.185 162.714 C 198.759 162.712,198.131 162.778,198.788 162.860 M138.073 163.609 C 139.763 163.678,142.430 163.678,143.999 163.608 C 145.568 163.539,144.185 163.483,140.926 163.483 C 137.667 163.484,136.383 163.540,138.073 163.609 M162.679 173.704 C 162.679 174.417,162.755 174.708,162.848 174.352 C 162.941 173.995,162.941 173.412,162.848 173.056 C 162.755 172.699,162.679 172.991,162.679 173.704 M139.722 213.976 C 140.690 214.052,142.273 214.052,143.241 213.976 C 144.208 213.900,143.417 213.837,141.481 213.837 C 139.546 213.837,138.755 213.900,139.722 213.976 M199.722 214.700 C 200.079 214.793,200.662 214.793,201.019 214.700 C 201.375 214.607,201.083 214.530,200.370 214.530 C 199.657 214.530,199.366 214.607,199.722 214.700 M272.778 214.815 L 271.296 215.080 272.870 215.133 C 273.736 215.162,274.444 215.019,274.444 214.815 C 274.444 214.611,274.403 214.468,274.352 214.497 C 274.301 214.526,273.593 214.669,272.778 214.815 M132.338 215.092 C 135.559 215.154,140.726 215.154,143.819 215.092 C 146.913 215.030,144.278 214.979,137.963 214.979 C 131.648 214.980,129.117 215.030,132.338 215.092 M230.288 215.086 C 231.159 215.165,232.492 215.164,233.251 215.084 C 234.009 215.004,233.296 214.940,231.667 214.942 C 230.037 214.943,229.416 215.008,230.288 215.086 " stroke="none" fill="#7c7c7c" fill-rule="evenodd"></path></g></svg>